<svg width="197" height="270" viewBox="0 0 197 270" fill="none" xmlns="http://www.w3.org/2000/svg">
<g filter="url(#filter0_f_237_1126)">
<path d="M68.7044 23.5844L167.198 40.875L166.354 100.629L34.6575 72.9409L68.7044 23.5844Z" fill="#C0038D"/>
<line x1="68.6911" y1="22.8407" x2="105.856" y2="59.8238" stroke="black" stroke-width="3"/>
<line x1="167.733" y1="41.8139" x2="105.419" y2="61.3335" stroke="black" stroke-width="3"/>
<path d="M192.56 51.9654C194.956 45.7924 185.782 53.9643 179.346 51.4665C172.91 48.9688 166.707 48.4812 164.312 54.6541C161.916 60.8271 170.134 56.1221 176.569 58.6199C183.005 61.1176 190.165 58.1383 192.56 51.9654Z" fill="#C0038D"/>
<path d="M191.35 58.8599C193.746 52.687 184.571 60.8588 178.135 58.3611C171.699 55.8633 165.497 55.3757 163.101 61.5487C160.706 67.7216 168.923 63.0167 175.359 65.5144C181.795 68.0122 188.954 65.0329 191.35 58.8599Z" fill="#C0038D"/>
<path d="M190.313 64.7695C192.708 58.5966 183.534 66.7685 177.098 64.2707C170.662 61.773 164.46 61.2854 162.064 67.4583C159.668 73.6313 167.886 68.9263 174.322 71.4241C180.758 73.9218 187.917 70.9425 190.313 64.7695Z" fill="#C0038D"/>
<path d="M35.8261 22.42C35.6763 15.8002 41.5181 26.6082 48.4191 26.4517C55.3201 26.2953 61.3171 27.9493 61.4669 34.5691C61.6167 41.1889 55.4936 33.9664 48.5926 34.1229C41.6916 34.2794 35.9758 29.0398 35.8261 22.42Z" fill="#C0038D"/>
<path d="M34.6157 29.3146C34.4659 22.6948 40.3077 33.5028 47.2087 33.3463C54.1097 33.1898 60.1067 34.8439 60.2565 41.4637C60.4063 48.0835 54.2833 40.861 47.3823 41.0175C40.4813 41.174 34.7655 35.9344 34.6157 29.3146Z" fill="#C0038D"/>
<path d="M33.5782 35.2242C33.4285 28.6044 39.2703 39.4124 46.1713 39.2559C53.0723 39.0995 59.0693 40.7535 59.2191 47.3733C59.3689 53.9931 53.2458 46.7706 46.3448 46.9271C39.4438 47.0836 33.728 41.844 33.5782 35.2242Z" fill="#C0038D"/>
<path d="M154.225 18.7879C154.225 18.788 154.224 18.7904 154.22 18.7951C154.223 18.7903 154.224 18.7879 154.225 18.7879ZM154.074 18.6815C154.125 18.7537 154.156 18.8082 154.175 18.8467C154.144 18.8765 154.097 18.9173 154.024 18.9678C153.761 19.1514 153.302 19.3656 152.587 19.5667C151.166 19.9668 149.069 20.2246 146.397 20.2964C141.079 20.4394 133.803 19.8392 125.847 18.4426C117.892 17.046 110.847 15.1321 105.895 13.1863C103.407 12.2087 101.523 11.2519 100.323 10.3917C99.7203 9.95939 99.3616 9.60159 99.1764 9.33924C99.1255 9.26704 99.0945 9.21251 99.076 9.17405C99.1065 9.14421 99.1542 9.10348 99.2267 9.05295C99.4902 8.86936 99.9492 8.65512 100.663 8.45404C102.084 8.05396 104.182 7.79614 106.854 7.72432C112.172 7.58136 119.448 8.18157 127.403 9.57814C135.359 10.9747 142.404 12.8886 147.356 14.8345C149.843 15.812 151.728 16.7689 152.928 17.629C153.531 18.0613 153.889 18.4191 154.074 18.6815ZM99.0493 9.10191C99.0495 9.10196 99.0502 9.10472 99.0508 9.11007C99.0494 9.10454 99.0491 9.10186 99.0493 9.10191ZM99.0263 9.23279C99.0261 9.23276 99.0273 9.23034 99.0305 9.22561C99.0282 9.23046 99.0266 9.23282 99.0263 9.23279ZM154.2 18.9107C154.201 18.9162 154.202 18.9189 154.202 18.9188C154.201 18.9188 154.201 18.916 154.2 18.9107Z" fill="black" stroke="#C0038D" stroke-width="3"/>
</g>
<g filter="url(#filter1_f_237_1126)">
<path d="M65.7044 22.5844L164.198 39.875L163.354 99.629L31.6575 71.9409L65.7044 22.5844Z" fill="#009FD3"/>
<line x1="65.3384" y1="22.1951" x2="102.504" y2="59.1782" stroke="black" stroke-width="2"/>
<line x1="164.584" y1="40.3368" x2="102.27" y2="59.8564" stroke="black" stroke-width="2"/>
<path d="M189.56 50.9654C191.956 44.7924 182.782 52.9643 176.346 50.4665C169.91 47.9688 163.707 47.4812 161.312 53.6541C158.916 59.8271 167.134 55.1221 173.569 57.6199C180.005 60.1176 187.165 57.1383 189.56 50.9654Z" fill="#009FD3"/>
<path d="M188.35 57.8599C190.746 51.687 181.571 59.8588 175.135 57.3611C168.699 54.8633 162.497 54.3757 160.101 60.5487C157.706 66.7216 165.923 62.0167 172.359 64.5144C178.795 67.0122 185.954 64.0329 188.35 57.8599Z" fill="#009FD3"/>
<path d="M187.313 63.7695C189.708 57.5966 180.534 65.7685 174.098 63.2707C167.662 60.773 161.46 60.2854 159.064 66.4583C156.668 72.6313 164.886 67.9263 171.322 70.4241C177.758 72.9218 184.917 69.9425 187.313 63.7695Z" fill="#009FD3"/>
<path d="M32.8261 21.42C32.6763 14.8002 38.5181 25.6082 45.4191 25.4517C52.3201 25.2953 58.3171 26.9493 58.4669 33.5691C58.6167 40.1889 52.4936 32.9664 45.5926 33.1229C38.6916 33.2794 32.9758 28.0398 32.8261 21.42Z" fill="#009FD3"/>
<path d="M31.6157 28.3146C31.4659 21.6948 37.3077 32.5028 44.2087 32.3463C51.1097 32.1898 57.1067 33.8439 57.2565 40.4637C57.4063 47.0835 51.2833 39.861 44.3823 40.0175C37.4813 40.174 31.7655 34.9344 31.6157 28.3146Z" fill="#009FD3"/>
<path d="M30.5782 34.2242C30.4285 27.6044 36.2703 38.4124 43.1713 38.2559C50.0723 38.0995 56.0693 39.7535 56.2191 46.3733C56.3689 52.9931 50.2458 45.7706 43.3448 45.9271C36.4438 46.0836 30.728 40.844 30.5782 34.2242Z" fill="#009FD3"/>
<path d="M151.696 17.9382C151.686 17.9941 151.634 18.1519 151.31 18.378C150.983 18.606 150.465 18.8391 149.723 19.048C148.244 19.4643 146.099 19.724 143.41 19.7962C138.05 19.9403 130.739 19.3356 122.761 17.9351C114.783 16.5345 107.703 14.613 102.712 12.6516C100.209 11.6679 98.2805 10.6932 97.0319 9.79805C96.4056 9.34899 95.9979 8.95336 95.7679 8.62758C95.5399 8.30454 95.5449 8.13846 95.5547 8.08254C95.5645 8.02661 95.6164 7.86878 95.9408 7.64272C96.268 7.41474 96.7861 7.18162 97.5279 6.97275C99.0067 6.55639 101.152 6.29677 103.84 6.2245C109.201 6.0804 116.512 6.68511 124.49 8.08567C132.468 9.48623 139.548 11.4077 144.539 13.3691C147.042 14.3529 148.97 15.3275 150.219 16.2227C150.845 16.6717 151.253 17.0674 151.483 17.3932C151.711 17.7162 151.706 17.8823 151.696 17.9382Z" fill="black" stroke="#009FD3" stroke-width="2"/>
</g>
<g filter="url(#filter2_i_237_1126)">
<path d="M63.8443 20.5844L162.338 37.875L161.494 97.629L29.7974 69.9409L63.8443 20.5844Z" fill="white"/>
<line x1="63.4867" y1="20.2037" x2="100.854" y2="58.2998" stroke="black" stroke-opacity="0.44" stroke-width="2"/>
<line x1="162.723" y1="38.3368" x2="100.41" y2="57.8564" stroke="black" stroke-opacity="0.44" stroke-width="2"/>
<path d="M187.7 48.9653C190.096 42.7924 180.921 50.9643 174.486 48.4665C168.05 45.9687 161.847 45.4812 159.451 51.6541C157.056 57.8271 165.273 53.1221 171.709 55.6199C178.145 58.1176 185.305 55.1383 187.7 48.9653Z" fill="white"/>
<path d="M186.49 55.8599C188.886 49.687 179.711 57.8588 173.275 55.3611C166.839 52.8633 160.637 52.3757 158.241 58.5487C155.845 64.7216 164.063 60.0167 170.499 62.5144C176.935 65.0122 184.094 62.0329 186.49 55.8599Z" fill="white"/>
<path d="M185.453 61.7695C187.848 55.5966 178.674 63.7685 172.238 61.2707C165.802 58.7729 159.599 58.2854 157.204 64.4583C154.808 70.6313 163.026 65.9263 169.462 68.4241C175.897 70.9218 183.057 67.9425 185.453 61.7695Z" fill="white"/>
<path d="M30.9659 19.42C30.8161 12.8002 36.6579 23.6082 43.5589 23.4517C50.4599 23.2953 56.4569 24.9493 56.6067 31.5691C56.7565 38.1889 50.6335 30.9664 43.7325 31.1229C36.8315 31.2794 31.1157 26.0398 30.9659 19.42Z" fill="white"/>
<path d="M29.7556 26.3146C29.6058 19.6947 35.4476 30.5028 42.3486 30.3463C49.2496 30.1898 55.2466 31.8439 55.3964 38.4637C55.5462 45.0835 49.4232 37.861 42.5222 38.0175C35.6212 38.1739 29.9054 32.9344 29.7556 26.3146Z" fill="white"/>
<path d="M28.7182 32.2242C28.5684 25.6044 34.4102 36.4124 41.3112 36.2559C48.2122 36.0995 54.2092 37.7535 54.359 44.3733C54.5088 50.9931 48.3857 43.7706 41.4847 43.9271C34.5837 44.0836 28.8679 38.844 28.7182 32.2242Z" fill="white"/>
<path d="M149.836 15.9382C149.826 15.9941 149.774 16.1519 149.45 16.378C149.123 16.606 148.605 16.8391 147.863 17.048C146.384 17.4643 144.239 17.724 141.55 17.7962C136.189 17.9403 128.879 17.3356 120.901 15.9351C112.923 14.5345 105.843 12.613 100.852 10.6516C98.3485 9.66785 96.4203 8.6932 95.1717 7.79805C94.5453 7.34899 94.1377 6.95336 93.9077 6.62758C93.6797 6.30454 93.6846 6.13846 93.6944 6.08254C93.7043 6.02661 93.7562 5.86878 94.0806 5.64272C94.4078 5.41474 94.9258 5.18162 95.6677 4.97275C97.1465 4.55639 99.2914 4.29677 101.98 4.2245C107.341 4.0804 114.652 4.68511 122.63 6.08567C130.608 7.48623 137.687 9.4077 142.678 11.3691C145.182 12.3529 147.11 13.3275 148.359 14.2227C148.985 14.6717 149.393 15.0674 149.623 15.3932C149.851 15.7162 149.846 15.8823 149.836 15.9382Z" fill="black" stroke="#C0038D" stroke-width="2"/>
</g>
<g filter="url(#filter3_f_237_1126)">
<path d="M7.00003 265.5C4.50002 252 7.75139 241.623 12.4999 234.5C21.5002 221 36.5 208 36.5 208C42 203 56.8568 196.482 69 198C81 199.5 81.6666 207 80.4999 210C79.4999 215.5 74.9 219.7 64.5 218.5C54.1 217.3 43 201.5 43 201.5C40.6667 197.667 37.5 193 36.5 177C35.9261 167.818 43.1666 158.5 46.5 155C51.5 149.667 65.8999 138.8 83.4999 138C101.1 137.2 110.167 137 118.5 149.5C121.5 154 124.5 161.731 114.5 167.5C101.5 175 84.9999 174 71.4999 169C57.9999 164 51.5 149.5 51.5 146.5C51.5 143.5 50 133 54.5 127C59 121 69 106.5 95.5 106" stroke="#C0038D" stroke-width="3"/>
</g>
<g filter="url(#filter4_i_237_1126)">
<path d="M7.00003 265.5C4.50002 252 7.75139 241.623 12.4999 234.5C21.5002 221 36.5 208 36.5 208C42 203 56.8568 196.482 69 198C81 199.5 81.6666 207 80.4999 210C79.4999 215.5 74.9 219.7 64.5 218.5C54.1 217.3 43 201.5 43 201.5C40.6667 197.667 37.5 193 36.5 177C35.9261 167.818 43.1666 158.5 46.5 155C51.5 149.667 65.8999 138.8 83.4999 138C101.1 137.2 110.167 137 118.5 149.5C121.5 154 124.5 161.731 114.5 167.5C101.5 175 84.9999 174 71.4999 169C57.9999 164 51.5 149.5 51.5 146.5C51.5 143.5 50 133 54.5 127C59 121 69 106.5 95.5 106" stroke="#009FD3" stroke-width="2"/>
</g>
<g filter="url(#filter5_i_237_1126)">
<path d="M7.00003 265.5C4.50002 252 7.75139 241.623 12.4999 234.5C21.5002 221 36.5 208 36.5 208C42 203 56.8568 196.482 69 198C81 199.5 81.6666 207 80.4999 210C79.4999 215.5 74.9 219.7 64.5 218.5C54.1 217.3 43 201.5 43 201.5C40.6667 197.667 37.5 193 36.5 177C35.9261 167.818 43.1666 158.5 46.5 155C51.5 149.667 65.8999 138.8 83.4999 138C101.1 137.2 110.167 137 118.5 149.5C121.5 154 124.5 161.731 114.5 167.5C101.5 175 84.9999 174 71.4999 169C57.9999 164 51.5 149.5 51.5 146.5C51.5 143.5 50 133 54.5 127C59 121 69 106.5 95.5 106" stroke="white" stroke-opacity="0.93"/>
</g>
<defs>
<filter id="filter0_f_237_1126" x="29.5754" y="2.20375" width="167.375" height="102.425" filterUnits="userSpaceOnUse" color-interpolation-filters="sRGB">
<feFlood flood-opacity="0" result="BackgroundImageFix"/>
<feBlend mode="normal" in="SourceGraphic" in2="BackgroundImageFix" result="shape"/>
<feGaussianBlur stdDeviation="2" result="effect1_foregroundBlur_237_1126"/>
</filter>
<filter id="filter1_f_237_1126" x="26.5754" y="1.20375" width="167.375" height="102.425" filterUnits="userSpaceOnUse" color-interpolation-filters="sRGB">
<feFlood flood-opacity="0" result="BackgroundImageFix"/>
<feBlend mode="normal" in="SourceGraphic" in2="BackgroundImageFix" result="shape"/>
<feGaussianBlur stdDeviation="2" result="effect1_foregroundBlur_237_1126"/>
</filter>
<filter id="filter2_i_237_1126" x="28.7153" y="3.20375" width="159.375" height="98.4252" filterUnits="userSpaceOnUse" color-interpolation-filters="sRGB">
<feFlood flood-opacity="0" result="BackgroundImageFix"/>
<feBlend mode="normal" in="SourceGraphic" in2="BackgroundImageFix" result="shape"/>
<feColorMatrix in="SourceAlpha" type="matrix" values="0 0 0 0 0 0 0 0 0 0 0 0 0 0 0 0 0 0 127 0" result="hardAlpha"/>
<feOffset dy="4"/>
<feGaussianBlur stdDeviation="2"/>
<feComposite in2="hardAlpha" operator="arithmetic" k2="-1" k3="1"/>
<feColorMatrix type="matrix" values="0 0 0 0 0 0 0 0 0 0 0 0 0 0 0 0 0 0 0.25 0"/>
<feBlend mode="normal" in2="shape" result="effect1_innerShadow_237_1126"/>
</filter>
<filter id="filter3_f_237_1126" x="0.63501" y="100.5" width="126.247" height="169.273" filterUnits="userSpaceOnUse" color-interpolation-filters="sRGB">
<feFlood flood-opacity="0" result="BackgroundImageFix"/>
<feBlend mode="normal" in="SourceGraphic" in2="BackgroundImageFix" result="shape"/>
<feGaussianBlur stdDeviation="2" result="effect1_foregroundBlur_237_1126"/>
</filter>
<filter id="filter4_i_237_1126" x="5.13501" y="105" width="117.247" height="164.682" filterUnits="userSpaceOnUse" color-interpolation-filters="sRGB">
<feFlood flood-opacity="0" result="BackgroundImageFix"/>
<feBlend mode="normal" in="SourceGraphic" in2="BackgroundImageFix" result="shape"/>
<feColorMatrix in="SourceAlpha" type="matrix" values="0 0 0 0 0 0 0 0 0 0 0 0 0 0 0 0 0 0 127 0" result="hardAlpha"/>
<feOffset dy="4"/>
<feGaussianBlur stdDeviation="2"/>
<feComposite in2="hardAlpha" operator="arithmetic" k2="-1" k3="1"/>
<feColorMatrix type="matrix" values="0 0 0 0 0 0 0 0 0 0 0 0 0 0 0 0 0 0 0.25 0"/>
<feBlend mode="normal" in2="shape" result="effect1_innerShadow_237_1126"/>
</filter>
<filter id="filter5_i_237_1126" x="5.63501" y="105.5" width="116.247" height="164.091" filterUnits="userSpaceOnUse" color-interpolation-filters="sRGB">
<feFlood flood-opacity="0" result="BackgroundImageFix"/>
<feBlend mode="normal" in="SourceGraphic" in2="BackgroundImageFix" result="shape"/>
<feColorMatrix in="SourceAlpha" type="matrix" values="0 0 0 0 0 0 0 0 0 0 0 0 0 0 0 0 0 0 127 0" result="hardAlpha"/>
<feOffset dy="4"/>
<feGaussianBlur stdDeviation="2"/>
<feComposite in2="hardAlpha" operator="arithmetic" k2="-1" k3="1"/>
<feColorMatrix type="matrix" values="0 0 0 0 0 0 0 0 0 0 0 0 0 0 0 0 0 0 0.25 0"/>
<feBlend mode="normal" in2="shape" result="effect1_innerShadow_237_1126"/>
</filter>
</defs>
</svg>
